<svg xmlns="http://www.w3.org/2000/svg" viewBox="0 0 64 64">
  <defs>
    <linearGradient id="grad" x1="0%" y1="0%" x2="100%" y2="100%">
      <stop offset="0%" stop-color="#27c5ff" />
      <stop offset="100%" stop-color="#0b4b8c" />
    </linearGradient>
  </defs>
  <rect width="64" height="64" rx="14" fill="url(#grad)" />
  <path
    fill="#fff"
    d="M45.6 21.5c-2.1-4.1-6.2-6.4-12.1-6.4-10.2 0-16.6 6.7-16.6 16.7 0 10.3 6.4 16.7 16.6 16.7 5.9 0 10-2.3 12.1-6.4l-6-2.9c-1.1 2-3.1 3-6.1 3-5.2 0-8.4-3.5-8.4-10.4 0-6.9 3.2-10.4 8.4-10.4 3 0 5 1 6.1 3l6-2.9z"
  />
</svg>
